<svg width="24" height="24" viewBox="0 0 24 24" fill="none" xmlns="http://www.w3.org/2000/svg">
<path d="M20 19H7C5.34315 19 4 17.6569 4 16C4 14.6925 4.83649 13.5803 6.00352 13.1695C6.00118 13.1133 6 13.0568 6 13C6 10.7909 7.79086 9 10 9C10.0689 9 10.1375 9.00175 10.2056 9.00519C10.8568 6.69403 12.9806 5 15.5 5C18.5376 5 21 7.46243 21 10.5C21 10.7087 20.9884 10.9147 20.9657 11.1174C22.7083 11.5494 24 13.1238 24 15C24 17.2091 22.2091 19 20 19Z" fill="white"/>
<path d="M7.41459 20C7.91327 20 8.23761 20.5248 8.01459 20.9708L6.68541 23.6292C6.57178 23.8564 6.3395 24 6.08541 24C5.58673 24 5.2624 23.4752 5.48541 23.0292L6.81459 20.3708C6.92822 20.1436 7.1605 20 7.41459 20Z" fill="white"/>
<path d="M10.4146 20C10.9133 20 11.2376 20.5248 11.0146 20.9708L9.68541 23.6292C9.57178 23.8564 9.3395 24 9.08541 24C8.58673 24 8.2624 23.4752 8.48541 23.0292L9.81459 20.3708C9.92822 20.1436 10.1605 20 10.4146 20Z" fill="white"/>
<path d="M13.4483 24H14.5517L14.4414 22.7778L15.4483 23.4861L16 22.5139L14.8966 22L16 21.4861L15.4483 20.5139L14.4414 21.2222L14.5517 20H13.4483L13.5586 21.2222L12.5517 20.5139L12 21.4861L13.1034 22L12 22.5139L12.5517 23.4861L13.5586 22.7778L13.4483 24Z" fill="white"/>
<path d="M19.5517 24H18.4483L18.5586 22.7778L17.5517 23.4861L17 22.5139L18.1034 22L17 21.4861L17.5517 20.5139L18.5586 21.2222L18.4483 20H19.5517L19.4414 21.2222L20.4483 20.5139L21 21.4861L19.8966 22L21 22.5139L20.4483 23.4861L19.4414 22.7778L19.5517 24Z" fill="white"/>
</svg>
