<svg width="24" height="24" viewBox="0 0 24 24" fill="none" xmlns="http://www.w3.org/2000/svg">
<path d="M18 17H5C3.34315 17 2 15.6569 2 14C2 12.6925 2.83649 11.5803 4.00352 11.1695C4.00118 11.1133 4 11.0568 4 11C4 8.79086 5.79086 7 8 7C8.06894 7 8.13748 7.00174 8.20557 7.00519C8.85678 4.69403 10.9806 3 13.5 3C16.5376 3 19 5.46243 19 8.5C19 8.70871 18.9884 8.9147 18.9657 9.11736C20.7083 9.54938 22 11.1238 22 13C22 15.2091 20.2091 17 18 17Z" fill="white"/>
<path d="M11.5517 22H12.6552L12.5448 20.7778L13.5517 21.4861L14.1034 20.5139L13 20L14.1034 19.4861L13.5517 18.5139L12.5448 19.2222L12.6552 18H11.5517L11.6621 19.2222L10.6552 18.5139L10.1034 19.4861L11.2069 20L10.1034 20.5139L10.6552 21.4861L11.6621 20.7778L11.5517 22Z" fill="white"/>
<path d="M18.6552 22H17.5517L17.6621 20.7778L16.6552 21.4861L16.1034 20.5139L17.2069 20L16.1034 19.4861L16.6552 18.5139L17.6621 19.2222L17.5517 18H18.6552L18.5448 19.2222L19.5517 18.5139L20.1034 19.4861L19 20L20.1034 20.5139L19.5517 21.4861L18.5448 20.7778L18.6552 22Z" fill="white"/>
<path d="M5.60345 22H6.7069L6.59655 20.7778L7.60345 21.4861L8.15517 20.5139L7.05172 20L8.15517 19.4861L7.60345 18.5139L6.59655 19.2222L6.7069 18H5.60345L5.71379 19.2222L4.7069 18.5139L4.15517 19.4861L5.25862 20L4.15517 20.5139L4.7069 21.4861L5.71379 20.7778L5.60345 22Z" fill="white"/>
</svg>
